<svg xmlns="http://www.w3.org/2000/svg" width="997" height="1105" viewBox="0 0 997 1105">
<rect width="100%" height="100%" fill="white"/>
<style>text{font-family:Arial,DejaVu Sans,sans-serif}.title{font-size:24px;font-weight:700}.sub{font-size:15px;fill:#48505c}.label{font-size:13px;font-weight:700;fill:#1e2a38}.axis{font-size:15px;font-weight:700;fill:#1e2a38}.cell{font-size:13px;font-weight:700;text-anchor:middle}</style>
<text x="24" y="42" class="title" fill="#161c24">SAR Test Confusion Matrix</text>
<text x="24" y="72" class="sub">Equal-weight TTA ensemble, n=1100, accuracy=0.9155</text>
<text x="500" y="105" class="axis">Predicted class</text>
<text x="22" y="615" class="axis">True class</text>
<text x="204.0" y="170.0" class="label" transform="rotate(-45 204.0 170.0)" text-anchor="middle">airplane</text>
<text x="18" y="269.0" class="label">airplane</text>
<text x="282.0" y="170.0" class="label" transform="rotate(-45 282.0 170.0)" text-anchor="middle">beach</text>
<text x="18" y="347.0" class="label">beach</text>
<text x="360.0" y="170.0" class="label" transform="rotate(-45 360.0 170.0)" text-anchor="middle">bridge</text>
<text x="18" y="425.0" class="label">bridge</text>
<text x="438.0" y="170.0" class="label" transform="rotate(-45 438.0 170.0)" text-anchor="middle">crosswalk</text>
<text x="18" y="503.0" class="label">crosswalk</text>
<text x="516.0" y="170.0" class="label" transform="rotate(-45 516.0 170.0)" text-anchor="middle">golf_course</text>
<text x="18" y="581.0" class="label">golf_course</text>
<text x="594.0" y="170.0" class="label" transform="rotate(-45 594.0 170.0)" text-anchor="middle">oil_tank</text>
<text x="18" y="659.0" class="label">oil_tank</text>
<text x="672.0" y="170.0" class="label" transform="rotate(-45 672.0 170.0)" text-anchor="middle">Photovoltaic</text>
<text x="18" y="737.0" class="label">Photovoltaic</text>
<text x="750.0" y="170.0" class="label" transform="rotate(-45 750.0 170.0)" text-anchor="middle">river</text>
<text x="18" y="815.0" class="label">river</text>
<text x="828.0" y="170.0" class="label" transform="rotate(-45 828.0 170.0)" text-anchor="middle">runway</text>
<text x="18" y="893.0" class="label">runway</text>
<text x="906.0" y="170.0" class="label" transform="rotate(-45 906.0 170.0)" text-anchor="middle">ship</text>
<text x="18" y="971.0" class="label">ship</text>
<rect x="165" y="225" width="78" height="78" fill="rgb(74,119,225)" stroke="#d7dfe8"/>
<text x="204.0" y="259" class="cell" fill="white">94</text>
<text x="204.0" y="277" class="cell" fill="white">85%</text>
<rect x="243" y="225" width="78" height="78" fill="rgb(241,245,254)" stroke="#d7dfe8"/>
<text x="282.0" y="259" class="cell" fill="#1e2a38">2</text>
<text x="282.0" y="277" class="cell" fill="#1e2a38">2%</text>
<rect x="321" y="225" width="78" height="78" fill="rgb(237,242,253)" stroke="#d7dfe8"/>
<text x="360.0" y="259" class="cell" fill="#1e2a38">4</text>
<text x="360.0" y="277" class="cell" fill="#1e2a38">4%</text>
<rect x="399" y="225" width="78" height="78" fill="rgb(245,248,255)" stroke="#d7dfe8"/>
<text x="438.0" y="259" class="cell" fill="#1e2a38">0</text>
<text x="438.0" y="277" class="cell" fill="#1e2a38">0%</text>
<rect x="477" y="225" width="78" height="78" fill="rgb(245,248,255)" stroke="#d7dfe8"/>
<text x="516.0" y="259" class="cell" fill="#1e2a38">0</text>
<text x="516.0" y="277" class="cell" fill="#1e2a38">0%</text>
<rect x="555" y="225" width="78" height="78" fill="rgb(241,245,254)" stroke="#d7dfe8"/>
<text x="594.0" y="259" class="cell" fill="#1e2a38">2</text>
<text x="594.0" y="277" class="cell" fill="#1e2a38">2%</text>
<rect x="633" y="225" width="78" height="78" fill="rgb(245,248,255)" stroke="#d7dfe8"/>
<text x="672.0" y="259" class="cell" fill="#1e2a38">0</text>
<text x="672.0" y="277" class="cell" fill="#1e2a38">0%</text>
<rect x="711" y="225" width="78" height="78" fill="rgb(245,248,255)" stroke="#d7dfe8"/>
<text x="750.0" y="259" class="cell" fill="#1e2a38">0</text>
<text x="750.0" y="277" class="cell" fill="#1e2a38">0%</text>
<rect x="789" y="225" width="78" height="78" fill="rgb(237,242,253)" stroke="#d7dfe8"/>
<text x="828.0" y="259" class="cell" fill="#1e2a38">4</text>
<text x="828.0" y="277" class="cell" fill="#1e2a38">4%</text>
<rect x="867" y="225" width="78" height="78" fill="rgb(237,242,253)" stroke="#d7dfe8"/>
<text x="906.0" y="259" class="cell" fill="#1e2a38">4</text>
<text x="906.0" y="277" class="cell" fill="#1e2a38">4%</text>
<rect x="165" y="303" width="78" height="78" fill="rgb(243,246,254)" stroke="#d7dfe8"/>
<text x="204.0" y="337" class="cell" fill="#1e2a38">1</text>
<text x="204.0" y="355" class="cell" fill="#1e2a38">1%</text>
<rect x="243" y="303" width="78" height="78" fill="rgb(59,108,222)" stroke="#d7dfe8"/>
<text x="282.0" y="337" class="cell" fill="white">102</text>
<text x="282.0" y="355" class="cell" fill="white">93%</text>
<rect x="321" y="303" width="78" height="78" fill="rgb(237,242,253)" stroke="#d7dfe8"/>
<text x="360.0" y="337" class="cell" fill="#1e2a38">4</text>
<text x="360.0" y="355" class="cell" fill="#1e2a38">4%</text>
<rect x="399" y="303" width="78" height="78" fill="rgb(243,246,254)" stroke="#d7dfe8"/>
<text x="438.0" y="337" class="cell" fill="#1e2a38">1</text>
<text x="438.0" y="355" class="cell" fill="#1e2a38">1%</text>
<rect x="477" y="303" width="78" height="78" fill="rgb(245,248,255)" stroke="#d7dfe8"/>
<text x="516.0" y="337" class="cell" fill="#1e2a38">0</text>
<text x="516.0" y="355" class="cell" fill="#1e2a38">0%</text>
<rect x="555" y="303" width="78" height="78" fill="rgb(245,248,255)" stroke="#d7dfe8"/>
<text x="594.0" y="337" class="cell" fill="#1e2a38">0</text>
<text x="594.0" y="355" class="cell" fill="#1e2a38">0%</text>
<rect x="633" y="303" width="78" height="78" fill="rgb(245,248,255)" stroke="#d7dfe8"/>
<text x="672.0" y="337" class="cell" fill="#1e2a38">0</text>
<text x="672.0" y="355" class="cell" fill="#1e2a38">0%</text>
<rect x="711" y="303" width="78" height="78" fill="rgb(243,246,254)" stroke="#d7dfe8"/>
<text x="750.0" y="337" class="cell" fill="#1e2a38">1</text>
<text x="750.0" y="355" class="cell" fill="#1e2a38">1%</text>
<rect x="789" y="303" width="78" height="78" fill="rgb(245,248,255)" stroke="#d7dfe8"/>
<text x="828.0" y="337" class="cell" fill="#1e2a38">0</text>
<text x="828.0" y="355" class="cell" fill="#1e2a38">0%</text>
<rect x="867" y="303" width="78" height="78" fill="rgb(243,246,254)" stroke="#d7dfe8"/>
<text x="906.0" y="337" class="cell" fill="#1e2a38">1</text>
<text x="906.0" y="355" class="cell" fill="#1e2a38">1%</text>
<rect x="165" y="381" width="78" height="78" fill="rgb(243,246,254)" stroke="#d7dfe8"/>
<text x="204.0" y="415" class="cell" fill="#1e2a38">1</text>
<text x="204.0" y="433" class="cell" fill="#1e2a38">1%</text>
<rect x="243" y="381" width="78" height="78" fill="rgb(243,246,254)" stroke="#d7dfe8"/>
<text x="282.0" y="415" class="cell" fill="#1e2a38">1</text>
<text x="282.0" y="433" class="cell" fill="#1e2a38">1%</text>
<rect x="321" y="381" width="78" height="78" fill="rgb(83,126,226)" stroke="#d7dfe8"/>
<text x="360.0" y="415" class="cell" fill="white">89</text>
<text x="360.0" y="433" class="cell" fill="white">81%</text>
<rect x="399" y="381" width="78" height="78" fill="rgb(226,234,251)" stroke="#d7dfe8"/>
<text x="438.0" y="415" class="cell" fill="#1e2a38">10</text>
<text x="438.0" y="433" class="cell" fill="#1e2a38">9%</text>
<rect x="477" y="381" width="78" height="78" fill="rgb(245,248,255)" stroke="#d7dfe8"/>
<text x="516.0" y="415" class="cell" fill="#1e2a38">0</text>
<text x="516.0" y="433" class="cell" fill="#1e2a38">0%</text>
<rect x="555" y="381" width="78" height="78" fill="rgb(245,248,255)" stroke="#d7dfe8"/>
<text x="594.0" y="415" class="cell" fill="#1e2a38">0</text>
<text x="594.0" y="433" class="cell" fill="#1e2a38">0%</text>
<rect x="633" y="381" width="78" height="78" fill="rgb(245,248,255)" stroke="#d7dfe8"/>
<text x="672.0" y="415" class="cell" fill="#1e2a38">0</text>
<text x="672.0" y="433" class="cell" fill="#1e2a38">0%</text>
<rect x="711" y="381" width="78" height="78" fill="rgb(239,243,254)" stroke="#d7dfe8"/>
<text x="750.0" y="415" class="cell" fill="#1e2a38">3</text>
<text x="750.0" y="433" class="cell" fill="#1e2a38">3%</text>
<rect x="789" y="381" width="78" height="78" fill="rgb(245,248,255)" stroke="#d7dfe8"/>
<text x="828.0" y="415" class="cell" fill="#1e2a38">0</text>
<text x="828.0" y="433" class="cell" fill="#1e2a38">0%</text>
<rect x="867" y="381" width="78" height="78" fill="rgb(234,239,253)" stroke="#d7dfe8"/>
<text x="906.0" y="415" class="cell" fill="#1e2a38">6</text>
<text x="906.0" y="433" class="cell" fill="#1e2a38">5%</text>
<rect x="165" y="459" width="78" height="78" fill="rgb(245,248,255)" stroke="#d7dfe8"/>
<text x="204.0" y="493" class="cell" fill="#1e2a38">0</text>
<text x="204.0" y="511" class="cell" fill="#1e2a38">0%</text>
<rect x="243" y="459" width="78" height="78" fill="rgb(245,248,255)" stroke="#d7dfe8"/>
<text x="282.0" y="493" class="cell" fill="#1e2a38">0</text>
<text x="282.0" y="511" class="cell" fill="#1e2a38">0%</text>
<rect x="321" y="459" width="78" height="78" fill="rgb(245,248,255)" stroke="#d7dfe8"/>
<text x="360.0" y="493" class="cell" fill="#1e2a38">0</text>
<text x="360.0" y="511" class="cell" fill="#1e2a38">0%</text>
<rect x="399" y="459" width="78" height="78" fill="rgb(63,111,223)" stroke="#d7dfe8"/>
<text x="438.0" y="493" class="cell" fill="white">100</text>
<text x="438.0" y="511" class="cell" fill="white">91%</text>
<rect x="477" y="459" width="78" height="78" fill="rgb(245,248,255)" stroke="#d7dfe8"/>
<text x="516.0" y="493" class="cell" fill="#1e2a38">0</text>
<text x="516.0" y="511" class="cell" fill="#1e2a38">0%</text>
<rect x="555" y="459" width="78" height="78" fill="rgb(245,248,255)" stroke="#d7dfe8"/>
<text x="594.0" y="493" class="cell" fill="#1e2a38">0</text>
<text x="594.0" y="511" class="cell" fill="#1e2a38">0%</text>
<rect x="633" y="459" width="78" height="78" fill="rgb(230,237,252)" stroke="#d7dfe8"/>
<text x="672.0" y="493" class="cell" fill="#1e2a38">8</text>
<text x="672.0" y="511" class="cell" fill="#1e2a38">7%</text>
<rect x="711" y="459" width="78" height="78" fill="rgb(245,248,255)" stroke="#d7dfe8"/>
<text x="750.0" y="493" class="cell" fill="#1e2a38">0</text>
<text x="750.0" y="511" class="cell" fill="#1e2a38">0%</text>
<rect x="789" y="459" width="78" height="78" fill="rgb(241,245,254)" stroke="#d7dfe8"/>
<text x="828.0" y="493" class="cell" fill="#1e2a38">2</text>
<text x="828.0" y="511" class="cell" fill="#1e2a38">2%</text>
<rect x="867" y="459" width="78" height="78" fill="rgb(245,248,255)" stroke="#d7dfe8"/>
<text x="906.0" y="493" class="cell" fill="#1e2a38">0</text>
<text x="906.0" y="511" class="cell" fill="#1e2a38">0%</text>
<rect x="165" y="537" width="78" height="78" fill="rgb(245,248,255)" stroke="#d7dfe8"/>
<text x="204.0" y="571" class="cell" fill="#1e2a38">0</text>
<text x="204.0" y="589" class="cell" fill="#1e2a38">0%</text>
<rect x="243" y="537" width="78" height="78" fill="rgb(245,248,255)" stroke="#d7dfe8"/>
<text x="282.0" y="571" class="cell" fill="#1e2a38">0</text>
<text x="282.0" y="589" class="cell" fill="#1e2a38">0%</text>
<rect x="321" y="537" width="78" height="78" fill="rgb(245,248,255)" stroke="#d7dfe8"/>
<text x="360.0" y="571" class="cell" fill="#1e2a38">0</text>
<text x="360.0" y="589" class="cell" fill="#1e2a38">0%</text>
<rect x="399" y="537" width="78" height="78" fill="rgb(243,246,254)" stroke="#d7dfe8"/>
<text x="438.0" y="571" class="cell" fill="#1e2a38">1</text>
<text x="438.0" y="589" class="cell" fill="#1e2a38">1%</text>
<rect x="477" y="537" width="78" height="78" fill="rgb(63,111,223)" stroke="#d7dfe8"/>
<text x="516.0" y="571" class="cell" fill="white">100</text>
<text x="516.0" y="589" class="cell" fill="white">91%</text>
<rect x="555" y="537" width="78" height="78" fill="rgb(245,248,255)" stroke="#d7dfe8"/>
<text x="594.0" y="571" class="cell" fill="#1e2a38">0</text>
<text x="594.0" y="589" class="cell" fill="#1e2a38">0%</text>
<rect x="633" y="537" width="78" height="78" fill="rgb(245,248,255)" stroke="#d7dfe8"/>
<text x="672.0" y="571" class="cell" fill="#1e2a38">0</text>
<text x="672.0" y="589" class="cell" fill="#1e2a38">0%</text>
<rect x="711" y="537" width="78" height="78" fill="rgb(230,237,252)" stroke="#d7dfe8"/>
<text x="750.0" y="571" class="cell" fill="#1e2a38">8</text>
<text x="750.0" y="589" class="cell" fill="#1e2a38">7%</text>
<rect x="789" y="537" width="78" height="78" fill="rgb(243,246,254)" stroke="#d7dfe8"/>
<text x="828.0" y="571" class="cell" fill="#1e2a38">1</text>
<text x="828.0" y="589" class="cell" fill="#1e2a38">1%</text>
<rect x="867" y="537" width="78" height="78" fill="rgb(245,248,255)" stroke="#d7dfe8"/>
<text x="906.0" y="571" class="cell" fill="#1e2a38">0</text>
<text x="906.0" y="589" class="cell" fill="#1e2a38">0%</text>
<rect x="165" y="615" width="78" height="78" fill="rgb(245,248,255)" stroke="#d7dfe8"/>
<text x="204.0" y="649" class="cell" fill="#1e2a38">0</text>
<text x="204.0" y="667" class="cell" fill="#1e2a38">0%</text>
<rect x="243" y="615" width="78" height="78" fill="rgb(241,245,254)" stroke="#d7dfe8"/>
<text x="282.0" y="649" class="cell" fill="#1e2a38">2</text>
<text x="282.0" y="667" class="cell" fill="#1e2a38">2%</text>
<rect x="321" y="615" width="78" height="78" fill="rgb(237,242,253)" stroke="#d7dfe8"/>
<text x="360.0" y="649" class="cell" fill="#1e2a38">4</text>
<text x="360.0" y="667" class="cell" fill="#1e2a38">4%</text>
<rect x="399" y="615" width="78" height="78" fill="rgb(237,242,253)" stroke="#d7dfe8"/>
<text x="438.0" y="649" class="cell" fill="#1e2a38">4</text>
<text x="438.0" y="667" class="cell" fill="#1e2a38">4%</text>
<rect x="477" y="615" width="78" height="78" fill="rgb(245,248,255)" stroke="#d7dfe8"/>
<text x="516.0" y="649" class="cell" fill="#1e2a38">0</text>
<text x="516.0" y="667" class="cell" fill="#1e2a38">0%</text>
<rect x="555" y="615" width="78" height="78" fill="rgb(63,111,223)" stroke="#d7dfe8"/>
<text x="594.0" y="649" class="cell" fill="white">100</text>
<text x="594.0" y="667" class="cell" fill="white">91%</text>
<rect x="633" y="615" width="78" height="78" fill="rgb(245,248,255)" stroke="#d7dfe8"/>
<text x="672.0" y="649" class="cell" fill="#1e2a38">0</text>
<text x="672.0" y="667" class="cell" fill="#1e2a38">0%</text>
<rect x="711" y="615" width="78" height="78" fill="rgb(245,248,255)" stroke="#d7dfe8"/>
<text x="750.0" y="649" class="cell" fill="#1e2a38">0</text>
<text x="750.0" y="667" class="cell" fill="#1e2a38">0%</text>
<rect x="789" y="615" width="78" height="78" fill="rgb(245,248,255)" stroke="#d7dfe8"/>
<text x="828.0" y="649" class="cell" fill="#1e2a38">0</text>
<text x="828.0" y="667" class="cell" fill="#1e2a38">0%</text>
<rect x="867" y="615" width="78" height="78" fill="rgb(245,248,255)" stroke="#d7dfe8"/>
<text x="906.0" y="649" class="cell" fill="#1e2a38">0</text>
<text x="906.0" y="667" class="cell" fill="#1e2a38">0%</text>
<rect x="165" y="693" width="78" height="78" fill="rgb(245,248,255)" stroke="#d7dfe8"/>
<text x="204.0" y="727" class="cell" fill="#1e2a38">0</text>
<text x="204.0" y="745" class="cell" fill="#1e2a38">0%</text>
<rect x="243" y="693" width="78" height="78" fill="rgb(245,248,255)" stroke="#d7dfe8"/>
<text x="282.0" y="727" class="cell" fill="#1e2a38">0</text>
<text x="282.0" y="745" class="cell" fill="#1e2a38">0%</text>
<rect x="321" y="693" width="78" height="78" fill="rgb(243,246,254)" stroke="#d7dfe8"/>
<text x="360.0" y="727" class="cell" fill="#1e2a38">1</text>
<text x="360.0" y="745" class="cell" fill="#1e2a38">1%</text>
<rect x="399" y="693" width="78" height="78" fill="rgb(243,246,254)" stroke="#d7dfe8"/>
<text x="438.0" y="727" class="cell" fill="#1e2a38">1</text>
<text x="438.0" y="745" class="cell" fill="#1e2a38">1%</text>
<rect x="477" y="693" width="78" height="78" fill="rgb(245,248,255)" stroke="#d7dfe8"/>
<text x="516.0" y="727" class="cell" fill="#1e2a38">0</text>
<text x="516.0" y="745" class="cell" fill="#1e2a38">0%</text>
<rect x="555" y="693" width="78" height="78" fill="rgb(245,248,255)" stroke="#d7dfe8"/>
<text x="594.0" y="727" class="cell" fill="#1e2a38">0</text>
<text x="594.0" y="745" class="cell" fill="#1e2a38">0%</text>
<rect x="633" y="693" width="78" height="78" fill="rgb(48,100,220)" stroke="#d7dfe8"/>
<text x="672.0" y="727" class="cell" fill="white">108</text>
<text x="672.0" y="745" class="cell" fill="white">98%</text>
<rect x="711" y="693" width="78" height="78" fill="rgb(245,248,255)" stroke="#d7dfe8"/>
<text x="750.0" y="727" class="cell" fill="#1e2a38">0</text>
<text x="750.0" y="745" class="cell" fill="#1e2a38">0%</text>
<rect x="789" y="693" width="78" height="78" fill="rgb(245,248,255)" stroke="#d7dfe8"/>
<text x="828.0" y="727" class="cell" fill="#1e2a38">0</text>
<text x="828.0" y="745" class="cell" fill="#1e2a38">0%</text>
<rect x="867" y="693" width="78" height="78" fill="rgb(245,248,255)" stroke="#d7dfe8"/>
<text x="906.0" y="727" class="cell" fill="#1e2a38">0</text>
<text x="906.0" y="745" class="cell" fill="#1e2a38">0%</text>
<rect x="165" y="771" width="78" height="78" fill="rgb(245,248,255)" stroke="#d7dfe8"/>
<text x="204.0" y="805" class="cell" fill="#1e2a38">0</text>
<text x="204.0" y="823" class="cell" fill="#1e2a38">0%</text>
<rect x="243" y="771" width="78" height="78" fill="rgb(239,243,254)" stroke="#d7dfe8"/>
<text x="282.0" y="805" class="cell" fill="#1e2a38">3</text>
<text x="282.0" y="823" class="cell" fill="#1e2a38">3%</text>
<rect x="321" y="771" width="78" height="78" fill="rgb(245,248,255)" stroke="#d7dfe8"/>
<text x="360.0" y="805" class="cell" fill="#1e2a38">0</text>
<text x="360.0" y="823" class="cell" fill="#1e2a38">0%</text>
<rect x="399" y="771" width="78" height="78" fill="rgb(235,241,253)" stroke="#d7dfe8"/>
<text x="438.0" y="805" class="cell" fill="#1e2a38">5</text>
<text x="438.0" y="823" class="cell" fill="#1e2a38">5%</text>
<rect x="477" y="771" width="78" height="78" fill="rgb(245,248,255)" stroke="#d7dfe8"/>
<text x="516.0" y="805" class="cell" fill="#1e2a38">0</text>
<text x="516.0" y="823" class="cell" fill="#1e2a38">0%</text>
<rect x="555" y="771" width="78" height="78" fill="rgb(245,248,255)" stroke="#d7dfe8"/>
<text x="594.0" y="805" class="cell" fill="#1e2a38">0</text>
<text x="594.0" y="823" class="cell" fill="#1e2a38">0%</text>
<rect x="633" y="771" width="78" height="78" fill="rgb(245,248,255)" stroke="#d7dfe8"/>
<text x="672.0" y="805" class="cell" fill="#1e2a38">0</text>
<text x="672.0" y="823" class="cell" fill="#1e2a38">0%</text>
<rect x="711" y="771" width="78" height="78" fill="rgb(65,113,223)" stroke="#d7dfe8"/>
<text x="750.0" y="805" class="cell" fill="white">99</text>
<text x="750.0" y="823" class="cell" fill="white">90%</text>
<rect x="789" y="771" width="78" height="78" fill="rgb(239,243,254)" stroke="#d7dfe8"/>
<text x="828.0" y="805" class="cell" fill="#1e2a38">3</text>
<text x="828.0" y="823" class="cell" fill="#1e2a38">3%</text>
<rect x="867" y="771" width="78" height="78" fill="rgb(245,248,255)" stroke="#d7dfe8"/>
<text x="906.0" y="805" class="cell" fill="#1e2a38">0</text>
<text x="906.0" y="823" class="cell" fill="#1e2a38">0%</text>
<rect x="165" y="849" width="78" height="78" fill="rgb(243,246,254)" stroke="#d7dfe8"/>
<text x="204.0" y="883" class="cell" fill="#1e2a38">1</text>
<text x="204.0" y="901" class="cell" fill="#1e2a38">1%</text>
<rect x="243" y="849" width="78" height="78" fill="rgb(245,248,255)" stroke="#d7dfe8"/>
<text x="282.0" y="883" class="cell" fill="#1e2a38">0</text>
<text x="282.0" y="901" class="cell" fill="#1e2a38">0%</text>
<rect x="321" y="849" width="78" height="78" fill="rgb(243,246,254)" stroke="#d7dfe8"/>
<text x="360.0" y="883" class="cell" fill="#1e2a38">1</text>
<text x="360.0" y="901" class="cell" fill="#1e2a38">1%</text>
<rect x="399" y="849" width="78" height="78" fill="rgb(243,246,254)" stroke="#d7dfe8"/>
<text x="438.0" y="883" class="cell" fill="#1e2a38">1</text>
<text x="438.0" y="901" class="cell" fill="#1e2a38">1%</text>
<rect x="477" y="849" width="78" height="78" fill="rgb(245,248,255)" stroke="#d7dfe8"/>
<text x="516.0" y="883" class="cell" fill="#1e2a38">0</text>
<text x="516.0" y="901" class="cell" fill="#1e2a38">0%</text>
<rect x="555" y="849" width="78" height="78" fill="rgb(245,248,255)" stroke="#d7dfe8"/>
<text x="594.0" y="883" class="cell" fill="#1e2a38">0</text>
<text x="594.0" y="901" class="cell" fill="#1e2a38">0%</text>
<rect x="633" y="849" width="78" height="78" fill="rgb(243,246,254)" stroke="#d7dfe8"/>
<text x="672.0" y="883" class="cell" fill="#1e2a38">1</text>
<text x="672.0" y="901" class="cell" fill="#1e2a38">1%</text>
<rect x="711" y="849" width="78" height="78" fill="rgb(243,246,254)" stroke="#d7dfe8"/>
<text x="750.0" y="883" class="cell" fill="#1e2a38">1</text>
<text x="750.0" y="901" class="cell" fill="#1e2a38">1%</text>
<rect x="789" y="849" width="78" height="78" fill="rgb(54,104,221)" stroke="#d7dfe8"/>
<text x="828.0" y="883" class="cell" fill="white">105</text>
<text x="828.0" y="901" class="cell" fill="white">95%</text>
<rect x="867" y="849" width="78" height="78" fill="rgb(245,248,255)" stroke="#d7dfe8"/>
<text x="906.0" y="883" class="cell" fill="#1e2a38">0</text>
<text x="906.0" y="901" class="cell" fill="#1e2a38">0%</text>
<rect x="165" y="927" width="78" height="78" fill="rgb(245,248,255)" stroke="#d7dfe8"/>
<text x="204.0" y="961" class="cell" fill="#1e2a38">0</text>
<text x="204.0" y="979" class="cell" fill="#1e2a38">0%</text>
<rect x="243" y="927" width="78" height="78" fill="rgb(245,248,255)" stroke="#d7dfe8"/>
<text x="282.0" y="961" class="cell" fill="#1e2a38">0</text>
<text x="282.0" y="979" class="cell" fill="#1e2a38">0%</text>
<rect x="321" y="927" width="78" height="78" fill="rgb(245,248,255)" stroke="#d7dfe8"/>
<text x="360.0" y="961" class="cell" fill="#1e2a38">0</text>
<text x="360.0" y="979" class="cell" fill="#1e2a38">0%</text>
<rect x="399" y="927" width="78" height="78" fill="rgb(245,248,255)" stroke="#d7dfe8"/>
<text x="438.0" y="961" class="cell" fill="#1e2a38">0</text>
<text x="438.0" y="979" class="cell" fill="#1e2a38">0%</text>
<rect x="477" y="927" width="78" height="78" fill="rgb(245,248,255)" stroke="#d7dfe8"/>
<text x="516.0" y="961" class="cell" fill="#1e2a38">0</text>
<text x="516.0" y="979" class="cell" fill="#1e2a38">0%</text>
<rect x="555" y="927" width="78" height="78" fill="rgb(245,248,255)" stroke="#d7dfe8"/>
<text x="594.0" y="961" class="cell" fill="#1e2a38">0</text>
<text x="594.0" y="979" class="cell" fill="#1e2a38">0%</text>
<rect x="633" y="927" width="78" height="78" fill="rgb(245,248,255)" stroke="#d7dfe8"/>
<text x="672.0" y="961" class="cell" fill="#1e2a38">0</text>
<text x="672.0" y="979" class="cell" fill="#1e2a38">0%</text>
<rect x="711" y="927" width="78" height="78" fill="rgb(245,248,255)" stroke="#d7dfe8"/>
<text x="750.0" y="961" class="cell" fill="#1e2a38">0</text>
<text x="750.0" y="979" class="cell" fill="#1e2a38">0%</text>
<rect x="789" y="927" width="78" height="78" fill="rgb(245,248,255)" stroke="#d7dfe8"/>
<text x="828.0" y="961" class="cell" fill="#1e2a38">0</text>
<text x="828.0" y="979" class="cell" fill="#1e2a38">0%</text>
<rect x="867" y="927" width="78" height="78" fill="rgb(45,98,220)" stroke="#d7dfe8"/>
<text x="906.0" y="961" class="cell" fill="white">110</text>
<text x="906.0" y="979" class="cell" fill="white">100%</text>
<rect x="165" y="225" width="780" height="780" fill="none" stroke="#34495e" stroke-width="2"/>
</svg>
